# xmcd CD database file
#
# Track frame offsets:
#	150
#	14921
#	69122
#	85416
#	137200
#
# Disc length: 2333 seconds
#
# Revision: 0
# Processed by: cddbd v1.5.2PL0 Copyright (c) Steve Scherf et al.
# Submitted via: CDex 1.70beta2
#
DISCID=41091b05
DTITLE=Dizzie Gillespie - Quintet In Europe - Kind Of Gillespie CD-9
DYEAR=1960
DGENRE=Jazz
TTITLE0=Lady Be Good (Gershwin)
TTITLE1=No Greater Love (Jones/Symes)
TTITLE2=The Mooche (Ellington)
TTITLE3=A Night In Tunisie (Gillespie/Paparelli)
TTITLE4=Long Long Summer (Schifirin)
EXTD=YEAR: 1960
EXTT0=
EXTT1=
EXTT2=
EXTT3=
EXTT4=
PLAYORDER=
